<svg width="30" height="27" viewBox="0 0 30 27" fill="none" xmlns="http://www.w3.org/2000/svg">
<path d="M29.4725 15.5662L27.9725 3.56625C27.8668 2.71978 27.4556 1.94105 26.8161 1.37642C26.1767 0.811791 25.353 0.500126 24.5 0.5H3C2.33696 0.5 1.70107 0.763392 1.23223 1.23223C0.763392 1.70107 0.5 2.33696 0.5 3V14C0.5 14.3283 0.564664 14.6534 0.690301 14.9567C0.815938 15.26 1.00009 15.5356 1.23223 15.7678C1.46438 15.9999 1.73998 16.1841 2.04329 16.3097C2.34661 16.4353 2.6717 16.5 3 16.5H8.0725L12.6587 25.6712C12.7834 25.9203 12.9748 26.1297 13.2117 26.2761C13.4486 26.4224 13.7215 26.5 14 26.5C15.4582 26.4983 16.8562 25.9184 17.8873 24.8873C18.9184 23.8562 19.4983 22.4582 19.5 21V19.5H26C26.4962 19.4999 26.9867 19.3943 27.439 19.1903C27.8913 18.9862 28.295 18.6883 28.6234 18.3163C28.9518 17.9443 29.1973 17.5067 29.3437 17.0326C29.4901 16.5585 29.534 16.0586 29.4725 15.5662ZM7.5 13.5H3.5V3.5H7.5V13.5ZM26.375 16.3312C26.328 16.3844 26.2703 16.4269 26.2057 16.456C26.141 16.4851 26.0709 16.5001 26 16.5H18C17.6022 16.5 17.2206 16.658 16.9393 16.9393C16.658 17.2206 16.5 17.6022 16.5 18V21C16.5 21.5135 16.3418 22.0145 16.0471 22.435C15.7523 22.8554 15.3352 23.1749 14.8525 23.35L10.5 14.6462V3.5H24.5C24.6225 3.49904 24.741 3.54305 24.8332 3.6237C24.9253 3.70434 24.9847 3.816 25 3.9375L26.5 15.9375C26.5084 16.0082 26.5016 16.08 26.4801 16.1479C26.4585 16.2158 26.4227 16.2783 26.375 16.3312Z" fill="white" fill-opacity="0.6"/>
</svg>
