<svg width="23" height="23" viewBox="0 0 23 23" fill="none" xmlns="http://www.w3.org/2000/svg">
<path d="M18.5633 22.4956C17.5024 22.4956 16.485 22.0742 15.7349 21.3241C14.9847 20.5739 14.5633 19.5565 14.5633 18.4956C14.5635 18.2137 14.5903 17.9325 14.6433 17.6556L7.34998 14.0156C6.81502 14.63 6.10523 15.0664 5.31552 15.2665C4.52582 15.4665 3.69386 15.4207 2.93091 15.1351C2.16797 14.8495 1.51042 14.3377 1.04621 13.6683C0.581992 12.9988 0.333252 12.2036 0.333252 11.389C0.333252 10.5743 0.581992 9.77909 1.04621 9.10964C1.51042 8.44019 2.16797 7.92844 2.93091 7.64284C3.69386 7.35723 4.52582 7.31139 5.31552 7.51145C6.10523 7.7115 6.81502 8.1479 7.34998 8.7623L14.6433 5.1223C14.5903 4.84544 14.5635 4.56419 14.5633 4.2823C14.5753 3.34666 14.9148 2.44483 15.523 1.73369C16.1311 1.02255 16.9693 0.547116 17.8918 0.3901C18.8142 0.233085 19.7625 0.404425 20.5717 0.874314C21.3808 1.3442 21.9997 2.0829 22.3205 2.96189C22.6413 3.84087 22.6439 4.80452 22.3276 5.68518C22.0114 6.56583 21.3965 7.30776 20.5898 7.78188C19.7831 8.256 18.8357 8.43231 17.9124 8.28013C16.9892 8.12794 16.1485 7.65691 15.5366 6.94896L8.24331 10.549C8.37589 11.1191 8.37589 11.7121 8.24331 12.2823L15.5366 15.9223C15.9802 15.4265 16.5404 15.0491 17.1666 14.8244C17.7928 14.5996 18.4651 14.5346 19.1228 14.6352C19.7804 14.7358 20.4026 14.9989 20.9329 15.4006C21.4632 15.8023 21.885 16.3299 22.16 16.9357C22.4351 17.5414 22.5547 18.2062 22.508 18.8699C22.4613 19.5335 22.2498 20.1751 21.8927 20.7364C21.5356 21.2977 21.0441 21.7611 20.4628 22.0845C19.8814 22.408 19.2286 22.4881 18.5633 22.4956ZM16.7366 17.6156C16.6182 17.8749 16.559 18.1573 16.5633 18.4423C16.5666 18.926 16.7462 19.3919 17.0684 19.7526C17.3907 20.1133 17.8335 20.344 18.3138 20.4015C18.7941 20.459 19.2789 20.3393 19.6772 20.0649C20.0755 19.7904 20.36 19.3801 20.4773 18.9108C20.5946 18.4415 20.5367 17.9456 20.3144 17.516C20.0921 17.0864 19.7207 16.7526 19.2699 16.5773C18.819 16.402 18.3197 16.3972 17.8656 16.5639C17.4115 16.7305 17.0338 17.057 16.8033 17.4823L16.7366 17.6156ZM4.33664 9.38896C3.80621 9.38896 3.2975 9.59968 2.92243 9.97475C2.54736 10.3498 2.33664 10.8585 2.33664 11.389C2.33664 11.9194 2.54736 12.4281 2.92243 12.8032C3.2975 13.1783 3.80621 13.389 4.33664 13.389C4.69585 13.3871 5.04812 13.2899 5.35738 13.1071C5.66664 12.9244 5.92177 12.6627 6.09664 12.349C6.21123 12.0884 6.2704 11.6736 6.2704 11.389C6.2704 11.1043 6.21123 10.8228 6.09664 10.5623C5.93977 10.2236 5.69242 9.93484 5.38186 9.7278C5.0713 9.52076 4.7096 9.40351 4.33664 9.38896ZM16.8033 5.2423C17.0357 5.67458 17.418 6.00709 17.8783 6.17732C18.3386 6.34755 18.8453 6.34377 19.303 6.16669C19.7608 5.98961 20.1381 5.65143 20.364 5.21573C20.5899 4.78002 20.6489 4.2768 20.5299 3.80066C20.4108 3.32452 20.122 2.90826 19.7176 2.63013C19.3132 2.352 18.8212 2.23115 18.3339 2.29031C17.8467 2.34947 17.3979 2.58456 17.0718 2.95139C16.7458 3.31821 16.5649 3.79151 16.5633 4.2823C16.5573 4.56317 16.6166 4.84161 16.7366 5.09563L16.8033 5.2423Z" fill="white" fill-opacity="0.6"/>
</svg>
