<svg width="28" height="34" viewBox="0 0 28 34" fill="none" xmlns="http://www.w3.org/2000/svg">
<path d="M23.6167 14.2L21.6167 13.3667L24 12.1C27.0667 10.5 28.2167 6.71665 26.6 3.66665C24.9833 0.616652 21.2 -0.550015 18.15 1.06665L4 8.56665C1.85 9.69999 0.550003 11.9667 0.66667 14.3833C0.783336 16.75 2.21667 18.8333 4.36667 19.8C4.41667 19.8167 6.36667 20.6333 6.36667 20.6333L4 21.8833C0.950003 23.5 -0.216663 27.2833 1.4 30.3333C3.01667 33.3833 6.8 34.55 9.85 32.9333L24.0167 25.4333C26.1667 24.3 27.45 22.0333 27.3333 19.6167C27.2167 17.25 25.7667 15.15 23.6167 14.2ZM10.6667 21.4167V12.5833L19 17L10.6667 21.4167Z" fill="#F1121B"/>
</svg>
